<svg xmlns="http://www.w3.org/2000/svg" viewBox="0 0 512 512">
  <defs>
    <linearGradient id="gold" x1="0%" y1="0%" x2="0%" y2="100%">
      <stop offset="0%" stop-color="#e8c36a"/>
      <stop offset="100%" stop-color="#b8873e"/>
    </linearGradient>
  </defs>
  <rect width="512" height="512" rx="96" fill="#0a0e17"/>
  <path d="M256 72
    C236 120 108 220 108 310
    C108 370 148 404 196 404
    C224 404 244 390 256 370
    C268 390 288 404 316 404
    C364 404 404 370 404 310
    C404 220 276 120 256 72Z" fill="url(#gold)"/>
  <path d="M236 390 C228 430 210 452 180 452
    L332 452
    C302 452 284 430 276 390
    L256 400Z" fill="url(#gold)"/>
</svg>
